<?xml version="1.0"?>
<svg width="1203" height="1203" xmlns="http://www.w3.org/2000/svg" xmlns:svg="http://www.w3.org/2000/svg">
 <mask height="289" id="k" maskUnits="userSpaceOnUse" width="252" x="773" y="776">
  <path d="m773.78,776.63l251.05,0l0,288l-251.05,0l0,-288z" fill="url(#j)" id="svg_1"/>
 </mask>
 <defs>
  <linearGradient id="j" x1="0.5" x2="0.5" y1="-0.39" y2="0.69">
   <stop/>
   <stop offset="1" stop-opacity="0"/>
  </linearGradient>
  <linearGradient id="l" x1="-1.97" x2="-2.11" y1="1.07" y2="0.32">
   <stop stop-color="#3D79ED"/>
   <stop offset="0.27" stop-color="#3458C1" stop-opacity="0.7"/>
   <stop offset="0.62" stop-color="#3753B8" stop-opacity="0.7"/>
   <stop offset="0.9" stop-color="#5BB0FF" stop-opacity="0.9"/>
   <stop offset="1" stop-color="#5BB0FF" stop-opacity="0.6"/>
  </linearGradient>
  <linearGradient id="m" x1="0.12" x2="0.63" y1="0.13" y2="0.77">
   <stop offset="0.05" stop-color="#fff"/>
   <stop offset="0.43" stop-color="#DFF4FF"/>
   <stop offset="0.99" stop-color="#0E42C8"/>
  </linearGradient>
  <linearGradient id="n" x1="0" x2="1.16" y1="-0.03" y2="0.3">
   <stop offset="0.28" stop-color="#fff"/>
   <stop offset="0.47" stop-color="#FF79DA"/>
   <stop offset="0.69" stop-color="#3D3AE3" stop-opacity="0.9"/>
  </linearGradient>
  <linearGradient id="o" x1="0" x2="1.15" y1="0.02" y2="0.43">
   <stop offset="0.16" stop-color="#fff"/>
   <stop offset="1" stop-color="#fff" stop-opacity="0"/>
  </linearGradient>
  <linearGradient id="p" x1="0" x2="0.52" y1="0.98" y2="0.24">
   <stop stop-color="#1AD6FF"/>
   <stop offset="1" stop-color="#496BE4" stop-opacity="0.6"/>
   <stop offset="1" stop-color="#1F3CA3"/>
  </linearGradient>
  <linearGradient id="q" x1="0.21" x2="0.9" y1="0.22" y2="0.5">
   <stop stop-color="#81FF6C"/>
   <stop offset="1" stop-color="#31F3FF"/>
  </linearGradient>
  <linearGradient id="r" x1="0" x2="0.95" y1="0.55" y2="0.63">
   <stop stop-color="#FF79C9"/>
   <stop offset="1" stop-color="#1F3CA3"/>
  </linearGradient>
  <linearGradient id="s" x1="0.1" x2="0.69" y1="0.38" y2="0.5">
   <stop stop-color="#52FF6E"/>
   <stop offset="1" stop-color="#31FFFF"/>
  </linearGradient>
  <linearGradient id="t" x1="0.2" x2="0.57" y1="0.16" y2="0.9">
   <stop offset="0.1" stop-color="#fff"/>
   <stop offset="0.44" stop-color="#FFAACE" stop-opacity="0.8"/>
   <stop offset="0.72" stop-color="#6F97FF" stop-opacity="0.8"/>
  </linearGradient>
  <linearGradient id="u" x1="0.5" x2="1" y1="0.26" y2="1">
   <stop stop-color="#fff"/>
   <stop offset="0.59" stop-color="#FF94D4"/>
   <stop offset="1" stop-color="#C994FF"/>
  </linearGradient>
  <linearGradient id="v" x1="0.21" x2="0.9" y1="0.22" y2="0.5">
   <stop stop-color="#81FF6C"/>
   <stop offset="1" stop-color="#31F3FF"/>
  </linearGradient>
  <linearGradient id="w" x1="0.5" x2="0.5" y1="0.04" y2="1.02">
   <stop stop-color="#fff"/>
   <stop offset="1" stop-color="#fff" stop-opacity="0"/>
  </linearGradient>
  <linearGradient id="x" x1="-0.05" x2="0.97" y1="1" y2="0.05">
   <stop offset="0.15" stop-color="#fff"/>
   <stop offset="0.3" stop-color="#8CFF31"/>
   <stop offset="0.45" stop-color="#45C3EB"/>
   <stop offset="1" stop-color="#72E6FF"/>
  </linearGradient>
  <linearGradient id="y" x1="0.45" x2="2.03" y1="0" y2="0.32">
   <stop stop-color="#6CFFED"/>
   <stop offset="1" stop-color="#197F9F"/>
  </linearGradient>
  <linearGradient id="z" x1="-2.49" x2="-0.84" y1="0.37" y2="0.88">
   <stop offset="0.47" stop-color="#fff"/>
   <stop offset="0.79" stop-color="#6DF390"/>
   <stop offset="1" stop-color="#21CAFF" stop-opacity="0.9"/>
  </linearGradient>
  <linearGradient id="A" x1="1" x2="0.03" y1="1" y2="0.05">
   <stop offset="0.13" stop-color="#fff"/>
   <stop offset="0.3" stop-color="#8CFF31"/>
   <stop offset="0.45" stop-color="#5BF5FF"/>
  </linearGradient>
  <linearGradient id="B" x1="0.14" x2="0.34" y1="-0.08" y2="1">
   <stop stop-color="#DFF4FF"/>
   <stop offset="0.99" stop-color="#0E42C8"/>
  </linearGradient>
  <linearGradient id="H" x1="2.97" x2="3.11" y1="-0.07" y2="0.68">
   <stop stop-color="#3D79ED"/>
   <stop offset="0.27" stop-color="#3458C1" stop-opacity="0.7"/>
   <stop offset="0.62" stop-color="#3753B8" stop-opacity="0.7"/>
   <stop offset="0.9" stop-color="#5BB0FF" stop-opacity="0.9"/>
   <stop offset="1" stop-color="#5BB0FF" stop-opacity="0.6"/>
  </linearGradient>
  <linearGradient id="I" x1="0.88" x2="0.37" y1="0.87" y2="0.23">
   <stop offset="0.05" stop-color="#fff"/>
   <stop offset="0.43" stop-color="#DFF4FF"/>
   <stop offset="0.99" stop-color="#0E42C8"/>
  </linearGradient>
  <linearGradient id="J" x1="1" x2="-0.16" y1="1.03" y2="0.7">
   <stop offset="0.28" stop-color="#fff"/>
   <stop offset="0.47" stop-color="#FF79DA"/>
   <stop offset="0.69" stop-color="#3D3AE3" stop-opacity="0.9"/>
  </linearGradient>
  <linearGradient id="K" x1="1" x2="-0.15" y1="0.98" y2="0.57">
   <stop offset="0.16" stop-color="#fff"/>
   <stop offset="1" stop-color="#fff" stop-opacity="0"/>
  </linearGradient>
  <linearGradient id="L" x1="1" x2="0.48" y1="0.02" y2="0.76">
   <stop stop-color="#1AD6FF"/>
   <stop offset="1" stop-color="#496BE4" stop-opacity="0.6"/>
   <stop offset="1" stop-color="#1F3CA3"/>
  </linearGradient>
  <linearGradient id="M" x1="0.79" x2="0.1" y1="0.78" y2="0.5">
   <stop stop-color="#81FF6C"/>
   <stop offset="1" stop-color="#31F3FF"/>
  </linearGradient>
  <linearGradient id="N" x1="1" x2="0.05" y1="0.45" y2="0.37">
   <stop stop-color="#FF79C9"/>
   <stop offset="1" stop-color="#1F3CA3"/>
  </linearGradient>
  <linearGradient id="O" x1="0.9" x2="0.31" y1="0.62" y2="0.5">
   <stop stop-color="#52FF6E"/>
   <stop offset="1" stop-color="#31FFFF"/>
  </linearGradient>
  <linearGradient id="P" x1="0.8" x2="0.43" y1="0.84" y2="0.1">
   <stop offset="0.1" stop-color="#fff"/>
   <stop offset="0.44" stop-color="#FFAACE" stop-opacity="0.8"/>
   <stop offset="0.72" stop-color="#6F97FF" stop-opacity="0.8"/>
  </linearGradient>
  <linearGradient id="Q" x1="0.5" x2="0" y1="0.74" y2="0">
   <stop stop-color="#fff"/>
   <stop offset="0.59" stop-color="#FF94D4"/>
   <stop offset="1" stop-color="#C994FF"/>
  </linearGradient>
  <linearGradient id="R" x1="0.79" x2="0.1" y1="0.78" y2="0.5">
   <stop stop-color="#81FF6C"/>
   <stop offset="1" stop-color="#31F3FF"/>
  </linearGradient>
  <linearGradient id="S" x1="0.5" x2="0.5" y1="0.96" y2="-0.02">
   <stop stop-color="#fff"/>
   <stop offset="1" stop-color="#fff" stop-opacity="0"/>
  </linearGradient>
  <linearGradient id="T" x1="1.05" x2="0.03" y1="0" y2="0.95">
   <stop offset="0.15" stop-color="#fff"/>
   <stop offset="0.3" stop-color="#8CFF31"/>
   <stop offset="0.45" stop-color="#45C3EB"/>
   <stop offset="1" stop-color="#72E6FF"/>
  </linearGradient>
  <linearGradient id="U" x1="0.55" x2="-1.03" y1="1" y2="0.68">
   <stop stop-color="#6CFFED"/>
   <stop offset="1" stop-color="#197F9F"/>
  </linearGradient>
  <linearGradient id="V" x1="3.49" x2="1.84" y1="0.63" y2="0.12">
   <stop offset="0.47" stop-color="#fff"/>
   <stop offset="0.79" stop-color="#6DF390"/>
   <stop offset="1" stop-color="#21CAFF" stop-opacity="0.9"/>
  </linearGradient>
  <linearGradient id="W" x1="0" x2="0.97" y1="0" y2="0.95">
   <stop offset="0.13" stop-color="#fff"/>
   <stop offset="0.3" stop-color="#8CFF31"/>
   <stop offset="0.45" stop-color="#5BF5FF"/>
  </linearGradient>
  <linearGradient id="X" x1="0.86" x2="0.66" y1="1.08" y2="0">
   <stop stop-color="#DFF4FF"/>
   <stop offset="0.99" stop-color="#0E42C8"/>
  </linearGradient>
  <radialGradient cx="0" cy="0" gradientTransform="rotate(89.388 -19.48 575.278) scale(482.785)" gradientUnits="userSpaceOnUse" id="b" r="1">
   <stop stop-color="#2954A3"/>
   <stop offset="1" stop-color="#101241"/>
  </radialGradient>
  <filter color-interpolation-filters="sRGB" filterUnits="userSpaceOnUse" height="1202.6" id="a" width="1202.6" x="0.2" y="0.2">
   <feFlood flood-opacity="0" result="BackgroundImageFix"/>
   <feBlend in="SourceGraphic" in2="BackgroundImageFix"/>
   <feGaussianBlur result="effect1_foregroundBlur_94_1906" stdDeviation="85.9"/>
  </filter>
  <clipPath id="i">
   <path d="m276,24l630,0l0,505c0,173.97 -141.03,315 -315,315s-315,-141.03 -315,-315l0,-505z" fill="#fff" id="svg_2"/>
  </clipPath>
 </defs>
 <g class="layer">
  <title>Layer 1</title>
  <g filter="url(#a)" id="svg_3" transform="matrix(1 0 0 1 0 0) matrix(0.997132 0 0 0.997677 0.746715 0.399531)">
   <circle cx="601.5" cy="601.5" fill="url(#b)" fill-opacity="0.6" id="svg_4" r="429.5" transform="translate(0 1) translate(172 173) scale(1.00582 1) translate(-172 -173)"/>
  </g>
  <g clip-path="url(#i)" id="svg_11" transform="matrix(1 0 0 1 0 0)">
   <path d="m530.5,338.31c4.06,2.18 4.5,1.19 9.5,13.19l58.07,-13.19c6.15,0.54 11.6,-2.08 14.96,-5.35c5.49,-5.35 3.83,-13.71 2,-18.1c3.83,-3.98 5.39,-9.62 2.99,-13.57c-2.99,-4.94 -2.99,-5.35 -2.99,-5.35s11.48,-2.88 13.97,-7.4c-2.66,-0.28 -17.56,-6.01 -17.96,-10.29c-0.5,-5.34 -15.97,-21.79 -25.95,-23.85c-7.98,-1.65 -18.96,2.19 -23.95,4.52c-3.99,-0.82 -12.77,-4.6 -21.95,0c-9.18,4.61 -14.3,10.42 -10.48,15.63c-1.33,-1.09 -16.96,1.65 -19.45,11.93c-2.87,11.82 -0.67,20.57 4.98,23.86c-2.82,0.96 -4.6,6.54 -0.74,13.16c3.5,6 9.84,4.91 15,4.5c-1.16,0.69 -6,6 2,10.31z" fill="#000" id="svg_12"/>
   <path d="m504.5,683l18,-88c5,3.17 21.1,5.8 37.5,7c16.4,1.2 44.67,-0.5 57.5,-2.5l10.5,-2.5c0.8,2.8 4,18.5 10,35.5c7.06,20 11,40.5 14,58c1.29,7.53 10,53.17 13,76l13.5,81.5l2.5,28l-72.5,-28l-7,-27l-16,-130.5c-3,-36.5 -10,4 -10,4s-12.5,79.5 -18,105l-7,11l-55,-70.5l9,-57z" fill="#002AB2" id="svg_13"/>
   <path d="m587.5,609.5l0,40c0,4.83 -0.6,15.3 -3,18.5c-2.4,3.2 -4,3.33 -4.5,3l1.5,-67m-41,-4l-3,15c-0.5,2.67 -2.5,8.5 -6.5,10.5s-12,0.83 -15.5,0m106,-25.5l1,13c0.83,3.5 3.2,10.7 6,11.5c2.8,0.8 5.17,0.33 6,0" id="svg_14" stroke="#253368" stroke-linecap="round" stroke-width="1.5"/>
   <path clip-rule="evenodd" d="m689.8,1239.41c0.33,1.44 5.22,-49.94 4.98,-65.09c-20.29,2.68 -39.05,0.77 -39.05,0.77s2.68,58.57 1.91,64.32c14.55,8.8 32.16,0 32.16,0z" fill="#597EF7" fill-rule="evenodd" id="svg_15"/>
   <path clip-rule="evenodd" d="m685.63,1308.92c-2.51,20.31 -13.44,31.06 -24.71,32.24c-13.96,1.48 -29.16,-2.46 -31.61,-14.97c-2.8,-14.28 4.55,-21.58 12.76,-42c8.21,-20.43 12.13,-37.89 15.19,-52.44c0,0 10.47,-6.12 7.66,11.49c-2.28,14.26 -7.79,54.37 -17.49,57.17c9.45,-0.76 28.85,6.64 28.85,6.64s-6.9,-10.72 -6.39,-14.3c0.51,-3.57 6.22,-40.18 6.51,-51.04c0.29,-10.75 9.61,-9.45 14.11,-8.19a2.93,2.93 0 0 1 2.12,3.18c-0.43,3.58 -5.8,62.61 -7,72.22z" fill="#4E5C93" fill-rule="evenodd" id="svg_16"/>
   <path clip-rule="evenodd" d="m680.62,1255.11s11.64,-24.38 0,-26.8c-9.19,-1.92 -18,-2.3 -19.15,0c-0.43,0.85 -0.38,8.8 -3.44,25.27c-3.58,19.21 -12.72,41.76 -16.09,46.32c-5.36,7.28 0.39,7.66 13.41,11.11c13.01,3.44 17.61,3.44 21.05,-3.45c3.45,-6.89 3.45,-37.52 4.22,-52.45z" fill="#4E5C93" fill-rule="evenodd" id="svg_17"/>
   <path d="m656.38,1261.89c0.27,-0.7 1.06,-1.05 1.76,-0.78c1.72,0.68 3.59,1.59 5.6,2.72c1.89,1.07 3.88,2.32 5.93,3.71c2.44,1.66 4.84,3.44 7.1,5.21l0.92,0.73c0.29,0.23 0.57,0.45 0.84,0.67l1.18,0.98c1.03,0.88 0.28,2.56 -1.07,2.38c-2.58,-0.35 -5.68,-0.18 -9.19,0.46c-3.2,0.57 -6.63,1.51 -10.13,2.7c-1.3,0.45 -2.56,0.91 -3.77,1.38l-0.83,0.32l0.51,0.17c3.95,1.28 7.96,3.53 11.95,6.5l0.71,0.53a70.59,70.59 0 0 1 6.43,5.59l0.78,0.78c0.12,0.13 0.25,0.25 0.36,0.37l0.67,0.7c0.32,0.34 0.54,0.59 0.66,0.72a1.36,1.36 0 1 1 -2.05,1.79l-0.43,-0.47l-0.16,-0.18a59.94,59.94 0 0 0 -1.73,-1.77a67.75,67.75 0 0 0 -6.18,-5.37c-5.52,-4.22 -11.03,-6.97 -16.16,-7.58c-1.36,-0.16 -1.66,-2 -0.42,-2.58l0.67,-0.3l1.33,-0.58a102.88,102.88 0 0 1 6.78,-2.59c3.63,-1.23 7.18,-2.2 10.52,-2.81c1.69,-0.3 3.31,-0.51 4.83,-0.61l0.97,-0.05l-1.01,-0.78c-1.36,-1.04 -2.76,-2.08 -4.18,-3.08l-1.43,-0.98c-1.99,-1.35 -3.91,-2.56 -5.74,-3.59c-1.9,-1.07 -3.66,-1.93 -5.25,-2.55a1.36,1.36 0 0 1 -0.77,-1.76z" fill="#CCD7EE" id="svg_18"/>
   <path d="m669.68,1264.45c3.63,-0.43 6.81,-0.41 9.44,0.18c0.73,0.16 1.2,0.88 1.03,1.62a1.36,1.36 0 0 1 -1.62,1.03c-2.28,-0.51 -5.18,-0.53 -8.53,-0.13c-2.77,0.34 -5.73,0.95 -8.76,1.75c-1.01,0.27 -1.99,0.55 -2.93,0.83l-0.26,0.08l0.43,0.2c3.14,1.53 6.2,3.46 9.16,5.71l0.88,0.69c2.8,2.21 5.33,4.58 7.56,6.95c0.63,0.67 1.19,1.3 1.69,1.88l0.69,0.81c0.19,0.23 0.33,0.4 0.42,0.51c0.66,0.86 0.11,2.08 -0.92,2.19l-0.52,0c-1.68,-0.02 -3.9,0.01 -6.47,0.12c-3.82,0.16 -7.6,0.48 -11.12,1c-6.18,0.9 -11.02,2.31 -13.96,4.27a1.36,1.36 0 1 1 -1.51,-2.26c3.36,-2.24 8.53,-3.75 15.08,-4.7c3.62,-0.53 7.49,-0.86 11.4,-1.03l1.52,-0.06c0.5,-0.01 0.98,-0.03 1.44,-0.04l1.03,-0.01l-0.31,-0.34l-0.44,-0.47a67.81,67.81 0 0 0 -7.27,-6.69c-4.19,-3.31 -8.59,-5.93 -13.11,-7.61c-1.18,-0.44 -1.18,-2.11 0,-2.55l1.18,-0.41c0.24,-0.08 0.49,-0.17 0.75,-0.25c1.51,-0.5 3.15,-0.99 4.89,-1.45c3.14,-0.83 6.23,-1.47 9.14,-1.82z" fill="#CCD7EE" id="svg_19"/>
   <path clip-rule="evenodd" d="m684.44,1312.92s-27.56,-22.97 -52.83,-6.13c-6.32,14.09 -2.67,22.46 0.38,26.81c1.26,1.79 3.65,4.3 5.72,5.05c6.15,2.22 22.28,6.68 33.72,-0.84c14.54,-9.58 13.01,-24.89 13.01,-24.89z" fill="#CCD7EE" fill-rule="evenodd" id="svg_20"/>
   <path d="m632.75,1306.97a0.71,0.71 0 0 1 0.98,-0.3c0.35,0.19 0.49,0.62 0.3,0.98c-3.16,5.92 0.26,13.85 4.87,16.92c3.37,2.25 16.08,4.42 26.11,3.97c4.57,-0.21 8.31,-3.1 11.3,-7.83a32.94,32.94 0 0 0 2.75,-5.5c0.26,-0.65 0.48,-1.26 0.65,-1.81l0.21,-0.67a0.72,0.72 0 0 1 0.89,-0.5c0.38,0.1 0.61,0.5 0.5,0.88l-0.16,0.54l-0.06,0.2c-0.19,0.57 -0.42,1.21 -0.68,1.89a34.21,34.21 0 0 1 -2.88,5.74c-3.21,5.09 -7.33,8.27 -12.45,8.5c-10.32,0.47 -23.3,-1.75 -26.98,-4.21c-5.17,-3.44 -8.91,-12.12 -5.34,-18.8l-0.01,0z" fill="#A3B5D6" id="svg_21"/>
   <path d="m693.35,1182.18c0.73,-0.16 1.45,0.31 1.61,1.04c0.16,0.74 -0.31,1.46 -1.04,1.62l-0.48,0.09c-0.38,0.08 -0.83,0.16 -1.33,0.25l-1.51,0.26c-1.04,0.17 -2.16,0.33 -3.36,0.49c-9.02,1.2 -18.39,1.52 -27.18,0.44c-0.89,-0.11 -1.77,-0.23 -2.63,-0.37a1.36,1.36 0 0 1 -1.13,-1.56c0.12,-0.74 0.82,-1.24 1.56,-1.13c0.83,0.14 1.67,0.26 2.53,0.36c8.53,1.05 17.68,0.74 26.49,-0.43c1.46,-0.2 2.81,-0.4 4.03,-0.61l0.72,-0.12c0.84,-0.15 1.42,-0.27 1.72,-0.33zm-23.25,67.1c0.62,-0.02 1.17,0.38 1.35,0.95l0.02,0.11l0.12,0.03l0.17,0.07l0.96,0.47l1.2,0.61c0.42,0.21 0.86,0.44 1.32,0.68a130.88,130.88 0 0 1 7.62,4.33c2.37,1.46 4.46,2.88 6.19,4.23c2.27,1.79 3.88,3.43 4.73,4.96c1.15,2.04 0.94,4.02 -0.85,5.39c-2.95,2.28 -6.87,0.66 -11.54,-3.59c-1.73,-1.57 -3.54,-3.49 -5.4,-5.69c-1.84,-2.17 -3.64,-4.5 -5.32,-6.82l-0.43,-0.6l-0.86,-1.23l-1.09,0.93a97.06,97.06 0 0 1 -5.49,4.25a64.34,64.34 0 0 1 -4.65,3.08l-0.86,0.5c-6.55,3.7 -11.34,4.14 -12.93,-0.66c-1.81,-5.42 3.59,-8.64 13.16,-10.53c2.75,-0.54 5.7,-0.93 8.64,-1.2l1.49,-0.12l1.35,-0.09c0.52,-0.03 0.9,-0.05 1.1,-0.06zm3.51,5.14l0.26,0.36a105.21,105.21 0 0 0 4.19,5.29c1.8,2.12 3.53,3.96 5.16,5.44c3.76,3.42 6.58,4.58 8.05,3.45c0.62,-0.48 0.67,-0.96 0.14,-1.92c-0.64,-1.14 -2.03,-2.56 -4.04,-4.14c-1.64,-1.28 -3.64,-2.65 -5.93,-4.06a122.89,122.89 0 0 0 -5.94,-3.42l-1.53,-0.81l-0.36,-0.19zm-7.39,-2.14l-1.24,0.12c-2.38,0.25 -4.73,0.59 -6.94,1.02l-1.11,0.23c-7.26,1.58 -10.94,3.93 -10,6.77c0.83,2.48 4.2,2.02 9.83,-1.32a61.24,61.24 0 0 0 4.45,-2.94a97.47,97.47 0 0 0 4.31,-3.3l0.7,-0.58zm15.28,-15.25c0.69,0.07 1.21,0.63 1.24,1.3l-0.01,0.18l-1.02,11.23c-0.07,0.75 -0.73,1.3 -1.48,1.23a1.35,1.35 0 0 1 -1.23,-1.29l0,-0.18l1.03,-11.24a1.36,1.36 0 0 1 1.29,-1.23l0.18,0zm-17.87,-3.57c0.69,0.06 1.21,0.62 1.24,1.29l0,0.19l-1.03,11.23c-0.06,0.75 -0.73,1.3 -1.47,1.23a1.36,1.36 0 0 1 -1.24,-1.29l0.01,-0.19l1.02,-11.23c0.06,-0.68 0.62,-1.2 1.29,-1.23l0.18,0z" fill="#CCD7EE" id="svg_22"/>
   <path clip-rule="evenodd" d="m522.31,595.7l1.74,-10.5s46.78,0.04 102.6,0.38c0.39,5.36 1.92,11.87 1.92,11.87s-40.34,13.53 -106.26,-1.75z" fill="#002AB2" fill-rule="evenodd" id="svg_23"/>
   <path clip-rule="evenodd" d="m635.75,520.61l-3.93,10.04s-1.08,49.6 -1.08,53.53c-53.6,8.67 -107.89,-0.68 -107.89,-0.68l0.27,-18.36l-4.37,-56.32l117,11.79z" fill="#fff" fill-rule="evenodd" id="svg_24"/>
   <path d="m634.93,519.86a0.87,0.87 0 0 1 1.67,0.48l-0.04,0.15l-3.88,9.9l-1.56,52.87a82.18,82.18 0 0 0 -0.02,1.43c0,0.42 -0.3,0.78 -0.71,0.85c-30.92,5.74 -62.56,5.42 -91.67,1.44a258.45,258.45 0 0 1 -11.26,-1.78l-1.1,-0.2a160.75,160.75 0 0 1 -2.83,-0.55l-1.64,-0.36a0.87,0.87 0 0 1 -0.67,-0.74l0,-0.15l1.03,-18.55a0.87,0.87 0 0 1 1.73,-0.06l0.01,0.16l-0.99,17.8l0.41,0.09c0.62,0.13 1.31,0.27 2.08,0.42l1.19,0.22a253.23,253.23 0 0 0 12.28,1.97c28.3,3.88 59.03,4.26 89.1,-1.06l1.3,-0.24l0.14,-5.83l0.72,-24.48l0.72,-23.45l0.06,-0.29l3.93,-10.04z" fill="#000" id="svg_25"/>
   <path clip-rule="evenodd" d="m605.21,309.64c-21.2,3.72 -27.64,-12.32 -27.64,-12.32s-8.75,-22.59 -10.99,-8.72c-1.19,7.37 -12.58,-2.41 -17.82,5.44c-3.53,5.29 5.29,12.11 -6.17,26.21c-6.64,8.16 -2.09,21.75 -3.09,32.25c0,0 0,8 -1.76,21.86l-4.36,21.4l45.46,-0.07l-1.46,-24.64c30.62,0 32.12,-42.1 27.83,-61.41z" fill="#FFC999" fill-rule="evenodd" id="svg_26"/>
   <path d="m566.13,332.05a1.36,1.36 0 0 1 1.92,0l0.28,0.25c0.13,0.11 0.29,0.25 0.48,0.4a17.42,17.42 0 0 0 2.34,1.55c3,1.67 6.44,2.54 10.22,2.17a1.36,1.36 0 1 1 0.26,2.71c-4.37,0.42 -8.34,-0.58 -11.81,-2.51c-1.75,-0.97 -3,-1.96 -3.69,-2.65a1.36,1.36 0 0 1 0,-1.92zm16.73,-21.25c0.53,0.03 0.95,0.46 1,0.98l0,0.19c-0.03,0.72 0.12,1.92 0.59,3.56c0.76,2.64 2.19,5.6 4.44,8.83a1.08,1.08 0 0 1 -0.31,1.54l-1.41,0.87a127.35,127.35 0 0 1 -4.82,2.84l-0.51,0.28c-0.4,0.22 -0.75,0.41 -1.07,0.58l-1.1,0.55a3,3 0 0 1 -0.07,0.03a1.08,1.08 0 1 1 -0.91,-1.96l0.5,-0.25l0.9,-0.47c0.22,-0.11 0.45,-0.24 0.7,-0.38a116.12,116.12 0 0 0 4.51,-2.61l1.17,-0.72l-0.26,-0.42c-1.74,-2.68 -2.93,-5.2 -3.67,-7.53l-0.17,-0.58c-0.49,-1.69 -0.68,-3.03 -0.68,-3.97l0.01,-0.36a1.08,1.08 0 0 1 1.16,-1z" fill="#DD936F" id="svg_27"/>
   <path clip-rule="evenodd" d="m587.22,565.29s58.11,15.41 84.61,-3.07c28.81,-20.07 -6.47,-96.48 -15.7,-116.39c-7.92,-17.09 -25.19,-28.17 -40.9,-30.79c-15.47,-2.57 -27.28,-3.49 -27.28,-3.49l-3.4,-13.24a4.36,4.36 0 0 0 -4.22,-3.28l-46.33,0a4.36,4.36 0 0 0 -4.32,3.75l-1.79,12.53s-38.99,-1.46 -57.45,15.63c-17.68,16.37 -12.57,53.11 2.26,87.12c14.83,34.01 27.31,61 52.11,63.48c45.84,4.58 117.49,-35.32 117.49,-35.32s12.22,-6.55 23.57,-4.8c-2.62,-15.72 -11.35,-27.07 -36.67,-20.52l-73.2,14.83" fill="#fff" fill-rule="evenodd" id="svg_28"/>
   <path clip-rule="evenodd" d="m643.5,489.43s4.62,13.42 -4.44,25.1l10.62,7.41l6.44,9.91l-17.06,1.84l-64.21,31.78s72.84,18.1 100.75,1.82c20.93,-12.21 11.91,-48.94 -4.15,-83.94c0,0 -11.86,-4.01 -27.95,6.08z" fill="#FFC999" fill-rule="evenodd" id="svg_29"/>
   <path clip-rule="evenodd" d="m517,493.54l17.9,38.86l71.59,-19.44c21.39,-5.68 43.79,1.62 49.47,18.64c-10.48,1.31 -30.04,6.69 -30.04,6.69s-68.75,45.89 -103.46,44.25c-24.89,-1.17 -34.57,-30.16 -49.4,-64.17c0,0 9.02,-22.21 43.94,-24.83z" fill="#FFC999" fill-rule="evenodd" id="svg_30"/>
   <path d="m569.32,411.1a0.87,0.87 0 0 1 0.15,1.73l-0.15,0.01l-41.72,0a0.87,0.87 0 0 1 -0.16,-1.73l0.16,-0.01l41.72,0z" fill="#000" id="svg_31"/>
   <path d="m556.9,365.93a1.08,1.08 0 0 1 1.47,-0.43c5.92,3.22 12.07,4.85 18.23,4.93a1.08,1.08 0 1 1 -0.03,2.17c-6.51,-0.09 -13,-1.8 -19.24,-5.2a1.08,1.08 0 0 1 -0.43,-1.47z" fill="#DD936F" id="svg_32"/>
   <path clip-rule="evenodd" d="m566.41,523.68s-26.13,-21.9 -42.2,-20.75c-15.28,1.09 -24.45,13.53 -21.83,20.52c0,0 -3.49,6.11 2.18,8.07c-0.76,4.48 5.68,4.15 5.68,4.15s-1.09,2.84 3.49,3.49c4.59,0.66 9.65,-8.73 21.55,-6.8l31.13,-8.68z" fill="#FFC999" fill-rule="evenodd" id="svg_33"/>
   <path d="m523.56,501.27c-7.16,0.52 -14.84,5.61 -20.36,12.43c-2.32,2.86 -3.91,5.67 -4.36,7.73l-0.06,0.28c-0.29,1.73 0.3,2.96 1.57,3.37l0.08,0.02l-0.1,0.23c-0.36,0.88 -0.53,1.77 -0.44,2.65l0.05,0.31c0.23,1.34 1.09,2.43 2.57,3.2l0.33,0.16l0,0.08c0.02,2.13 1.46,3.48 3.67,4.09l0.47,0.12c0.47,0.1 0.93,0.17 1.38,0.21l0.12,0l0.01,0.09c0.05,0.4 0.18,0.81 0.41,1.21c0.67,1.15 2.03,1.92 4.11,2.21c1.15,0.17 2.3,-0.12 3.66,-0.83l0.41,-0.22c0.84,-0.47 4.06,-2.6 4.1,-2.62c4.49,-2.84 8.29,-3.96 13.35,-3.13c0.15,0.02 0.3,0.01 0.44,-0.02l32.34,-8.36a1.08,1.08 0 0 0 0.41,-1.89l-1.16,-0.92l-1.19,-0.91a164.13,164.13 0 0 0 -12.77,-8.81c-4.34,-2.68 -8.54,-4.97 -12.53,-6.75c-6.11,-2.71 -11.47,-4.13 -15.91,-3.96l-0.6,0.04l0,-0.01zm15.63,5.91c3.89,1.73 8.01,3.98 12.27,6.61c3.7,2.3 7.29,4.76 10.62,7.21l1.56,1.16l1.01,0.77l-30.01,7.75l0.24,0.04c-5.44,-0.89 -9.63,0.25 -14.29,3.09l-0.57,0.35c-0.1,0.06 -3.23,2.13 -4,2.56c-1.16,0.65 -2,0.9 -2.71,0.79c-1.47,-0.21 -2.23,-0.63 -2.53,-1.14a1.1,1.1 0 0 1 -0.14,-0.67l0.04,-0.21c0.26,-0.68 -0.21,-1.4 -0.92,-1.47l-0.2,0a8.78,8.78 0 0 1 -2.48,-0.29c-1.57,-0.43 -2.26,-1.19 -2.02,-2.6a1.08,1.08 0 0 0 -0.71,-1.2c-1.56,-0.55 -2.21,-1.27 -2.3,-2.17c-0.07,-0.64 0.14,-1.4 0.55,-2.17c0.22,-0.42 0.44,-0.74 0.58,-0.9c0.65,-0.81 -0.1,-1.98 -1.11,-1.74l-0.39,0.09c-0.87,0.16 -0.95,-0.09 -0.72,-1.15c0.36,-1.67 1.8,-4.21 3.92,-6.83c5.18,-6.39 12.37,-11.16 18.83,-11.62c4.14,-0.3 9.39,1.03 15.48,3.74z" fill="#DD936F" id="svg_34"/>
   <path d="m523.42,508.84a1.08,1.08 0 0 1 0.27,2.15c-4.12,0.52 -8.59,2.87 -13.08,6.48a56.6,56.6 0 0 0 -5.05,4.6l-0.76,0.79l-0.92,1.01a14.36,14.36 0 0 0 -0.23,0.27a1.08,1.08 0 0 1 -1.66,-1.39l0.53,-0.61a58.62,58.62 0 0 1 6.73,-6.36c4.78,-3.84 9.57,-6.37 14.17,-6.94zm7.21,5.85a1.08,1.08 0 0 1 0.07,2.17c-0.36,0.01 -0.73,0.03 -1.09,0.07c-5.12,0.48 -10.68,3.1 -16.29,7.18a67.67,67.67 0 0 0 -7.48,6.33l-0.92,0.93l-0.07,0.07a1.08,1.08 0 1 1 -1.59,-1.47l0.65,-0.67l0.84,-0.82a69.63,69.63 0 0 1 7.29,-6.12c5.9,-4.29 11.79,-7.06 17.36,-7.59c0.41,-0.04 0.82,-0.07 1.23,-0.08zm-0.03,6.89a1.08,1.08 0 0 1 0.13,2.17c-1.85,0.11 -4.14,0.91 -6.77,2.28c-1.85,0.97 -3.82,2.2 -5.85,3.64a85.76,85.76 0 0 0 -5.4,4.16l-0.85,0.72l-1.33,1.17a1.08,1.08 0 0 1 -1.46,-1.6l0.6,-0.54l0.78,-0.68a87.44,87.44 0 0 1 6.41,-5c2.11,-1.49 4.15,-2.77 6.09,-3.79c2.88,-1.5 5.44,-2.39 7.65,-2.53z" fill="#DD936F" id="svg_35"/>
   <path d="m506.63,465.18a0.87,0.87 0 0 1 1.05,0.38l0.07,0.15l9.64,27.1a0.87,0.87 0 0 1 -0.78,1.17l-0.5,0.03c-0.42,0.03 -0.91,0.07 -1.46,0.13a78.05,78.05 0 0 0 -5.21,0.7c-5.4,0.91 -10.8,2.33 -15.83,4.39c-9.2,3.76 -16.09,9.18 -19.77,16.53a0.87,0.87 0 1 1 -1.56,-0.78c3.9,-7.78 11.12,-13.46 20.67,-17.37c5.16,-2.11 10.68,-3.56 16.2,-4.49a80.55,80.55 0 0 1 4.51,-0.63l1.23,-0.13l0.47,-0.04l-9.26,-26.03a0.87,0.87 0 0 1 0.39,-1.05l0.14,-0.06zm144.19,19.59c6.72,-2.91 13.86,-4.09 20.91,-2.56a0.87,0.87 0 0 1 -0.37,1.71c-6.65,-1.45 -13.44,-0.32 -19.85,2.45a40.2,40.2 0 0 0 -3.58,1.75l-0.63,0.36c-0.74,0.43 -1.25,0.76 -1.51,0.95a0.87,0.87 0 0 1 -1,-1.43l0.43,-0.29c0.34,-0.22 0.75,-0.47 1.2,-0.73a41.59,41.59 0 0 1 4.4,-2.21z" fill="#000" id="svg_36"/>
   <path d="m637.64,513.81c0.24,-0.55 0.87,-0.8 1.42,-0.56c3.85,1.64 7.4,4.29 10.62,7.65a48.74,48.74 0 0 1 6.25,8.09l0.55,0.91c0.1,0.18 0.18,0.32 0.23,0.42a1.08,1.08 0 0 1 -0.59,1.53l-0.16,0.04l-9.88,1.9l-9.88,1.9l-65.23,32.74a1.09,1.09 0 0 1 -1.36,-0.33l-0.09,-0.15a1.08,1.08 0 0 1 0.33,-1.37l0.15,-0.09l65.36,-32.8l0.28,-0.1l18.4,-3.54l-0.27,-0.42c-0.1,-0.17 -0.21,-0.35 -0.33,-0.52l-0.36,-0.54a46.63,46.63 0 0 0 -4.96,-6.17c-3.04,-3.16 -6.36,-5.64 -9.91,-7.16a1.08,1.08 0 0 1 -0.57,-1.43z" fill="#DD936F" id="svg_37"/>
   <path d="m523.08,595.17a1.02,1.02 0 0 1 1.29,-0.64l1.09,0.35l0.97,0.28c0.68,0.2 1.42,0.42 2.24,0.64a180.4,180.4 0 0 0 11.95,2.82c28.19,5.68 58.21,6.11 86.52,-2.15a1.02,1.02 0 0 1 0.57,1.96c-28.67,8.36 -59,7.93 -87.5,2.18a182.18,182.18 0 0 1 -12.08,-2.84l-1.19,-0.34c-0.57,-0.16 -1.1,-0.31 -1.59,-0.46l-1.37,-0.42l-0.26,-0.09a1.02,1.02 0 0 1 -0.64,-1.29zm45.54,-284.51c0.72,0 1.31,0.58 1.31,1.3c0,5.03 -3.79,9.15 -8.52,9.15c-4.72,0 -8.5,-4.12 -8.5,-9.15a1.31,1.31 0 0 1 2.61,0c0,3.63 2.67,6.53 5.89,6.53c3.24,0 5.9,-2.9 5.9,-6.53c0,-0.72 0.59,-1.3 1.31,-1.3zm33.01,0.89c0.68,0 1.24,0.56 1.24,1.25c0,4.96 -3.4,9.07 -7.72,9.07c-4.33,0 -7.73,-4.11 -7.73,-9.07a1.24,1.24 0 0 1 2.48,0c0,3.68 2.41,6.59 5.25,6.59s5.24,-2.91 5.24,-6.59c0,-0.69 0.55,-1.25 1.24,-1.25zm-47.79,-14.99c4.99,-2.1 10.28,-1.89 15.28,-0.29c1.44,0.47 2.51,0.93 3.12,1.26a1.31,1.31 0 0 1 -1.22,2.31l-0.33,-0.16a21.57,21.57 0 0 0 -2.37,-0.92c-4.46,-1.43 -9.13,-1.61 -13.46,0.21a16.27,16.27 0 0 0 -2.31,1.21a1.31,1.31 0 0 1 -1.39,-2.22a18.91,18.91 0 0 1 2.68,-1.4z" fill="#253368" id="svg_38"/>
   <path clip-rule="evenodd" d="m475.53,1233.28c-0.32,1.44 -5.21,-49.94 -4.98,-65.09c20.29,2.68 39.06,0.77 39.06,0.77s-2.68,58.58 -1.92,64.32c-14.55,8.81 -32.16,0 -32.16,0z" fill="#597EF7" fill-rule="evenodd" id="svg_39"/>
   <path clip-rule="evenodd" d="m479.7,1302.8c2.52,20.31 13.44,31.05 24.71,32.24c13.96,1.47 29.16,-2.46 31.62,-14.97c2.8,-14.28 -4.55,-21.59 -12.76,-42.01c-8.21,-20.42 -12.13,-37.89 -15.19,-52.43c0,0 -10.47,-6.13 -7.66,11.48c2.27,14.26 7.78,54.37 17.48,57.18c-9.45,-0.77 -28.84,6.63 -28.84,6.63s6.89,-10.72 6.38,-14.29c-0.51,-3.57 -6.21,-40.19 -6.51,-51.05c-0.29,-10.74 -9.61,-9.45 -14.1,-8.19a2.94,2.94 0 0 0 -2.12,3.19c0.43,3.57 5.8,62.6 6.99,72.22z" fill="#4E5C93" fill-rule="evenodd" id="svg_40"/>
   <path clip-rule="evenodd" d="m484.72,1248.98s-11.64,-24.37 0,-26.8c9.19,-1.91 17.99,-2.3 19.14,0c0.43,0.86 0.39,8.81 3.45,25.27c3.57,19.22 12.72,41.76 16.08,46.33c5.36,7.27 -0.38,7.65 -13.4,11.1c-13.02,3.45 -17.61,3.45 -21.06,-3.45c-3.45,-6.89 -3.45,-37.52 -4.21,-52.45z" fill="#4E5C93" fill-rule="evenodd" id="svg_41"/>
   <path d="m507.2,1254.99a1.36,1.36 0 0 1 1.76,0.77a1.36,1.36 0 0 1 -0.78,1.76c-1.59,0.62 -3.35,1.48 -5.25,2.55c-1.82,1.03 -3.75,2.24 -5.73,3.59a124.35,124.35 0 0 0 -5.62,4.06l-1.01,0.79l0.06,0c1.54,0.06 3.16,0.23 4.88,0.51l0.86,0.15c3.35,0.6 6.9,1.57 10.52,2.8c2.23,0.76 4.34,1.57 6.29,2.38l0.97,0.42l1.52,0.68c1.24,0.58 0.94,2.42 -0.42,2.58c-5.13,0.6 -10.64,3.35 -16.15,7.57a66.17,66.17 0 0 0 -6.18,5.38c-0.39,0.38 -0.76,0.75 -1.09,1.1l-0.64,0.66c-0.3,0.32 -0.5,0.54 -0.6,0.66c-0.49,0.56 -1.35,0.62 -1.91,0.12a1.35,1.35 0 0 1 -0.13,-1.91l0.48,-0.53l0.17,-0.19a69.14,69.14 0 0 1 8.25,-7.45c4.22,-3.23 8.47,-5.67 12.65,-7.03l0.52,-0.16l-0.84,-0.33c-0.8,-0.31 -1.63,-0.62 -2.48,-0.92l-1.28,-0.45c-3.51,-1.2 -6.93,-2.13 -10.13,-2.71c-3.51,-0.63 -6.62,-0.81 -9.2,-0.45c-1.34,0.18 -2.1,-1.51 -1.06,-2.39l0.79,-0.66l1.23,-0.99c0.29,-0.23 0.59,-0.48 0.91,-0.72c2.26,-1.78 4.66,-3.56 7.11,-5.22c2.04,-1.39 4.03,-2.64 5.93,-3.71c2,-1.13 3.87,-2.04 5.6,-2.71z" fill="#CCD7EE" id="svg_42"/>
   <path d="m486.21,1258.5c2.63,-0.58 5.82,-0.61 9.45,-0.17c2.9,0.35 5.99,0.98 9.14,1.82c1.39,0.36 2.72,0.75 3.96,1.15l1.31,0.42l1.54,0.54c1.18,0.44 1.18,2.11 0,2.55c-4.52,1.67 -8.92,4.29 -13.11,7.61a66.13,66.13 0 0 0 -6.45,5.83l-1.04,1.09l-0.53,0.57l1.74,0.04c0.48,0.01 0.97,0.02 1.48,0.04l0.77,0.04c3.92,0.16 7.78,0.49 11.4,1.02c6.55,0.95 11.73,2.47 15.08,4.7c0.63,0.42 0.8,1.26 0.38,1.89a1.37,1.37 0 0 1 -1.89,0.38c-2.94,-1.96 -7.78,-3.38 -13.96,-4.28c-3.52,-0.51 -7.29,-0.83 -11.12,-1c-1.8,-0.08 -3.42,-0.11 -4.81,-0.12l-1.99,0.01c-1.15,0.02 -1.81,-1.29 -1.1,-2.19l0.56,-0.7l0.17,-0.2c0.59,-0.7 1.28,-1.47 2.06,-2.3a70.92,70.92 0 0 1 7.56,-6.96c3.23,-2.55 6.59,-4.72 10.04,-6.39l0.43,-0.21l-0.26,-0.08c-0.62,-0.19 -1.26,-0.37 -1.92,-0.56l-1,-0.27c-3.03,-0.8 -6,-1.41 -8.77,-1.74c-3.35,-0.4 -6.24,-0.38 -8.53,0.12a1.36,1.36 0 1 1 -0.59,-2.65z" fill="#CCD7EE" id="svg_43"/>
   <path clip-rule="evenodd" d="m480.89,1306.8s27.57,-22.98 52.84,-6.13c6.31,14.08 2.66,22.45 -0.39,26.8c-1.26,1.8 -3.65,4.31 -5.71,5.05c-6.15,2.22 -22.29,6.68 -33.72,-0.84c-14.55,-9.57 -13.02,-24.88 -13.02,-24.88z" fill="#CCD7EE" fill-rule="evenodd" id="svg_44"/>
   <path d="m531.6,1300.54c0.35,-0.19 0.79,-0.05 0.98,0.3c3.57,6.69 -0.18,15.36 -5.34,18.81c-3.68,2.45 -16.67,4.67 -26.98,4.2c-5.13,-0.23 -9.25,-3.4 -12.45,-8.5a34.29,34.29 0 0 1 -2.88,-5.74c-0.2,-0.51 -0.38,-1 -0.53,-1.45l-0.27,-0.81c-0.05,-0.16 -0.08,-0.28 -0.11,-0.36a0.72,0.72 0 0 1 0.51,-0.89a0.72,0.72 0 0 1 0.89,0.5l0.2,0.67l0.3,0.87c0.11,0.3 0.22,0.62 0.35,0.95c0.74,1.87 1.66,3.75 2.76,5.49c2.98,4.74 6.73,7.62 11.29,7.83c10.04,0.46 22.74,-1.72 26.12,-3.96c4.61,-3.08 8.03,-11 4.87,-16.93a0.73,0.73 0 0 1 0.29,-0.98z" fill="#A3B5D6" id="svg_45"/>
   <path d="m470.37,1177.1c0.16,-0.74 0.88,-1.2 1.62,-1.05l1.14,0.23l0.57,0.1c1.41,0.25 3,0.5 4.75,0.73c8.81,1.17 17.97,1.49 26.49,0.44c0.86,-0.11 1.71,-0.23 2.54,-0.36c0.74,-0.12 1.44,0.38 1.55,1.13c0.12,0.74 -0.38,1.43 -1.12,1.55c-0.87,0.14 -1.74,0.27 -2.63,0.38c-8.79,1.08 -18.17,0.75 -27.19,-0.44c-1.49,-0.2 -2.87,-0.41 -4.13,-0.62l-1.44,-0.26l-1.1,-0.22a1.36,1.36 0 0 1 -1.05,-1.61zm24.68,66.06l0.19,-0.01l1.09,0.06c0.86,0.05 1.81,0.12 2.84,0.22c2.95,0.26 5.89,0.65 8.65,1.2c9.57,1.88 14.97,5.1 13.16,10.53c-1.67,5 -6.8,4.31 -13.8,0.15c-1.49,-0.88 -3.04,-1.92 -4.65,-3.07c-1.88,-1.36 -3.74,-2.81 -5.48,-4.26l-0.45,-0.38l-0.65,-0.55l-0.86,1.23l-0.43,0.6a109.51,109.51 0 0 1 -5.32,6.82c-1.86,2.2 -3.67,4.12 -5.4,5.7c-4.66,4.24 -8.58,5.86 -11.53,3.59c-1.79,-1.38 -2,-3.35 -0.86,-5.4c0.85,-1.52 2.46,-3.16 4.74,-4.95c1.72,-1.36 3.81,-2.78 6.18,-4.24c2.43,-1.49 5.03,-2.96 7.63,-4.32l1.31,-0.69l2.16,-1.08c0.06,-0.03 0.12,-0.05 0.18,-0.07l0.11,-0.03l0.03,-0.11c0.16,-0.51 0.62,-0.89 1.16,-0.94zm-3.33,5.14l-0.35,0.18a128.93,128.93 0 0 0 -7.47,4.24c-2.29,1.41 -4.3,2.77 -5.93,4.06c-2.02,1.58 -3.41,3 -4.05,4.14c-0.53,0.95 -0.48,1.44 0.14,1.91c1.48,1.14 4.29,-0.02 8.05,-3.44c1.63,-1.49 3.37,-3.33 5.16,-5.44c1.44,-1.7 2.84,-3.49 4.19,-5.3l0.26,-0.35zm7.39,-2.15l0.71,0.59a97.87,97.87 0 0 0 4.3,3.29a61.24,61.24 0 0 0 4.45,2.94c5.63,3.35 9,3.8 9.83,1.33c0.99,-2.98 -3.11,-5.43 -11.11,-7.01a81.29,81.29 0 0 0 -6.93,-1.02l-1.25,-0.12zm-15.28,-15.24c0.69,-0.06 1.3,0.39 1.45,1.05l0.03,0.18l1.02,11.23c0.06,0.75 -0.49,1.41 -1.23,1.48c-0.69,0.06 -1.3,-0.4 -1.45,-1.05l-0.03,-0.18l-1.02,-11.24a1.36,1.36 0 0 1 1.23,-1.47zm17.87,-3.58c0.68,-0.06 1.3,0.4 1.45,1.05l0.03,0.19l1.01,11.23c0.07,0.74 -0.48,1.41 -1.23,1.47a1.35,1.35 0 0 1 -1.44,-1.05l-0.03,-0.18l-1.02,-11.23a1.36,1.36 0 0 1 1.23,-1.48z" fill="#CCD7EE" id="svg_46"/>
   <path d="m635,494.5l8,-5l3.5,4l-4,19.5l-3,0.5l-2,1.5l-3,-1.5l0.5,-19z" fill="#FFC999" id="svg_47"/>
   <path d="m631,468.5c0.83,4 2.5,10 3,15c0.68,6.77 0.17,20.67 0,29.5" id="svg_48" stroke="#000" stroke-linecap="round" stroke-width="1.5"/>
   <path d="m532.5,645l-24.5,127m116.65,-136l51.78,285.27" id="svg_49" stroke="#253368" stroke-linecap="round" stroke-width="1.5"/>
  </g>
  <g id="svg_92" transform="matrix(1.14382 -0.561862 0.660385 0.973173 -795.796 286.968)">
   <g id="svg_50" mask="url(#k)" opacity="0.8">
    <path d="m640.77,1006.56l62.03,31.12l29.65,45.54l-44.57,149.52l-47.11,-25.21l0,-200.97z" fill="url(#l)" id="svg_51"/>
    <path d="m640.77,1006.56l0,103.27l54.78,-29.86l7.25,-42.29l-62.03,-31.12z" fill="url(#m)" fill-opacity="0.7" id="svg_52" opacity="0.8"/>
    <g id="svg_53" opacity="0.8">
     <path d="m640.77,1006.57l-62.04,31.12l-29.64,45.53l44.57,149.52l47.11,-25.21l0,-200.96z" fill="url(#n)" fill-opacity="0.7" id="svg_54"/>
     <path d="m640.77,1006.57l-62.04,31.12l-29.64,45.53l44.57,149.52l47.11,-25.21l0,-200.96z" fill="url(#o)" fill-opacity="0.5" id="svg_55"/>
    </g>
    <path d="m687.89,1232.74l-47.12,-25.21l0,50.43l47.12,-25.21z" fill="url(#p)" id="svg_56"/>
    <path d="m640.77,1085.96l-31.2,-16.69l31.2,-16.7l31.2,16.7l-31.2,16.69z" fill="url(#q)" fill-opacity="0.5" id="svg_57"/>
    <path d="m593.65,1232.74l47.12,25.21l0,-50.43l-47.12,25.21z" fill="url(#r)" fill-opacity="0.8" id="svg_58"/>
    <path d="m640.77,1247.32l-25.27,-13.52l25.27,-13.53l25.27,13.53l-25.27,13.52z" fill="url(#s)" fill-opacity="0.6" id="svg_59"/>
    <path d="m640.77,1006.56l0,103.27l-54.78,-29.86l-7.25,-42.29l62.03,-31.12z" fill="url(#t)" id="svg_60" opacity="0.8"/>
    <path d="m549.09,1083.22l29.65,-45.54l7.25,42.29l-36.9,3.25z" fill="url(#u)" fill-opacity="0.7" id="svg_61"/>
    <path d="m640.77,1125.31l-50.77,-27.18l50.77,-27.17l50.77,27.17l-50.77,27.18z" fill="url(#v)" fill-opacity="0.7" id="svg_62"/>
    <path d="m640.77,1125.31l-50.77,-27.18l50.77,-27.17l50.77,27.17l-50.77,27.18z" fill="url(#w)" fill-opacity="0.7" id="svg_63"/>
    <path d="m640.77,1070.96l-50.77,27.17l19.57,-28.87l31.2,-16.69l0,18.39z" fill="url(#x)" fill-opacity="0.9" id="svg_64"/>
    <path d="m640.77,1070.96l50.77,27.17l-25.5,135.68l-25.27,-13.53l0,-149.32z" fill="url(#y)" fill-opacity="0.6" id="svg_65"/>
    <path d="m640.77,1070.96l-50.77,27.17l25.5,135.68l25.27,-13.53l0,-149.32z" fill="url(#z)" fill-opacity="0.9" id="svg_66"/>
    <path d="m640.77,1070.96l50.77,27.17l-19.57,-28.87l-31.2,-16.69l0,18.39z" fill="url(#A)" fill-opacity="0.9" id="svg_67"/>
    <path d="m732.45,1083.22l-29.65,-45.54l-7.25,42.29l36.9,3.25z" fill="url(#B)" fill-opacity="0.7" id="svg_68"/>
   </g>
   <path d="m640.77,1038.82l-62.03,-31.12l-29.65,-45.54l44.57,-149.52l47.11,25.21l0,200.97z" fill="url(#H)" id="svg_74"/>
   <path d="m640.77,1038.82l0,-103.27l-54.78,29.86l-7.25,42.29l62.03,31.12z" fill="url(#I)" fill-opacity="0.7" id="svg_75" opacity="0.8"/>
   <g id="svg_76" opacity="0.8">
    <path d="m639.77,1038.81l62.04,-31.12l29.64,-45.53l-44.57,-149.52l-47.11,25.21l0,200.96z" fill="url(#J)" fill-opacity="0.7" id="svg_77"/>
    <path d="m639.77,1038.81l62.04,-31.12l29.64,-45.53l-44.57,-149.52l-47.11,25.21l0,200.96z" fill="url(#K)" fill-opacity="0.5" id="svg_78"/>
   </g>
   <path d="m593.65,812.64l47.12,25.21l0,-50.43l-47.12,25.21z" fill="url(#L)" id="svg_79"/>
   <path d="m640.77,959.41l31.2,16.69l-31.2,16.69l-31.2,-16.69l31.2,-16.69z" fill="url(#M)" fill-opacity="0.5" id="svg_80"/>
   <path d="m687.89,812.64l-47.12,-25.21l0,50.43l47.12,-25.21z" fill="url(#N)" fill-opacity="0.8" id="svg_81"/>
   <path d="m640.77,798.05l25.27,13.52l-25.27,13.53l-25.27,-13.53l25.27,-13.52z" fill="url(#O)" fill-opacity="0.6" id="svg_82"/>
   <path d="m640.77,1038.82l0,-103.27l54.78,29.86l7.25,42.29l-62.03,31.12z" fill="url(#P)" id="svg_83" opacity="0.8"/>
   <path d="m732.45,962.16l-29.65,45.54l-7.25,-42.3l36.9,-3.24z" fill="url(#Q)" fill-opacity="0.7" id="svg_84"/>
   <path d="m640.77,920.07l50.77,27.18l-50.77,27.17l-50.77,-27.17l50.77,-27.18z" fill="url(#R)" fill-opacity="0.7" id="svg_85"/>
   <path d="m640.77,920.07l50.77,27.18l-50.77,27.17l-50.77,-27.17l50.77,-27.18z" fill="url(#S)" fill-opacity="0.7" id="svg_86"/>
   <path d="m640.77,974.41l50.77,-27.17l-19.57,28.86l-31.2,16.7l0,-18.39z" fill="url(#T)" fill-opacity="0.9" id="svg_87"/>
   <path d="m640.77,974.42l-50.77,-27.18l25.5,-135.67l25.27,13.53l0,149.32z" fill="url(#U)" fill-opacity="0.6" id="svg_88"/>
   <path d="m640.77,974.42l50.77,-27.18l-25.5,-135.67l-25.27,13.53l0,149.32z" fill="url(#V)" fill-opacity="0.9" id="svg_89"/>
   <path d="m640.77,974.41l-50.77,-27.17l19.57,28.86l31.2,16.7l0,-18.39z" fill="url(#W)" fill-opacity="0.9" id="svg_90"/>
   <path d="m549.09,962.16l29.65,45.54l7.25,-42.3l-36.9,-3.24z" fill="url(#X)" fill-opacity="0.7" id="svg_91"/>
  </g>
 </g>
</svg>